<?xml version="1.0" encoding="UTF-8"?>
<svg width="1200pt" height="1200pt" version="1.1" viewBox="0 0 1200 1200" xmlns="http://www.w3.org/2000/svg">
 <path d="m472.69 202c-49.418 0-89.293 39.457-89.293 87.996 0 48.707 39.875 88.082 89.293 88.082 49.117 0 89.027-39.383 89.027-88.082-0.011719-48.539-39.91-87.996-89.027-87.996z"/>
 <path d="m925.11 376.1c-3.3477-19.008-18.914-29.797-19.859-30.492l-524.19-345.61-48.699 70.547c-9.0703 13.906-5.1133 32.398 8.7969 41.449 13.836 9.1562 32.293 5.4375 41.363-8.4609l28.5-40.766 425.75 280.92-348.81 62.785c-24.695 4.1523-42.578 28.848-37.07 53.027l75.914 293.45-245.52 368.25c-14.676 25.141-5.7852 57.348 19.609 71.762 25.645 14.594 58.117 5.7109 72.891-19.418 0 0 256.06-385.08 257.01-387.51 0 0 13.211 53.438 13.211 53.699l-38.426 288.89c-4.8242 28.766 14.688 55.621 43.703 60.457 29.016 4.8242 56.57-14.426 61.395-43.008l39.746-297.17c1.2109-7.6094-0.34766-24.266-2.0742-31.609l-87.578-347.95 227.82-41.027c24.34-4.3047 40.828-27.789 36.508-52.23z"/>
</svg>
