<svg width="80" height="65" viewBox="0 0 80 65" fill="none" xmlns="http://www.w3.org/2000/svg">
<path d="M0.00143528 40.5398V43.3289H13.3804C19.3023 43.3289 24.9894 46.1297 29.0014 51.0086L34.2123 57.3484H65.1533C65.6729 53.1492 69.2744 49.8796 73.6142 49.8796C75.2626 49.8796 76.8134 50.3483 78.1142 51.1687V49.5085C78.1142 46.5476 77.2861 43.6882 75.7158 41.1999L75.6377 41.0592C73.4072 37.5475 69.7979 35.2897 65.7588 34.7975L52.6568 5.47754H50.3052L63.8562 35.7865L57.7468 44.6771C57.2859 45.3373 57.0554 46.1185 57.0554 46.9154V52.017H39.4534V40.537C39.4534 38.7987 38.0315 37.3768 36.2932 37.3768L3.1602 37.3807C1.4219 37.3807 0 38.8026 0 40.5409L0.00143528 40.5398Z" fill="white"/>
<path d="M73.6104 52.0195C70.4385 52.0195 67.8213 54.3203 67.3213 57.3476C67.2627 57.6992 67.2197 58.0468 67.2197 58.4179C67.2197 58.789 67.251 59.1289 67.3213 59.4882C67.8213 62.5077 70.4502 64.8085 73.6104 64.8085C76.7706 64.8085 79.3995 62.5077 79.8995 59.4882C79.9581 59.1367 80.001 58.789 80.001 58.4179C80.001 56.6484 79.2706 55.0468 78.1105 53.8867C76.9621 52.7383 75.3722 52.0156 73.6105 52.0156L73.6104 52.0195Z" fill="white"/>
<path d="M19.1925 59.4765C19.251 59.125 19.294 58.7773 19.294 58.4062C19.294 58.0351 19.2628 57.6953 19.1925 57.3359C18.6925 54.3047 16.0519 52.0078 12.9034 52.0078C9.75495 52.0078 7.11426 54.3086 6.61426 57.3359C6.55566 57.6875 6.5127 58.0351 6.5127 58.4062C6.5127 58.7773 6.54395 59.1172 6.61426 59.4765C7.11426 62.496 9.74315 64.7968 12.9034 64.7968C16.0636 64.7968 18.6925 62.496 19.1925 59.4765Z" fill="white"/>
<path d="M59.5608 1.67965C59.5726 1.41793 59.5608 0.14845 58.1702 0.03125H58.1585C57.9671 0.011719 57.7679 0 57.5687 0H6.54168C6.34246 0 6.15106 0.011719 5.94012 0.03125C4.54172 0.16016 4.52992 1.42965 4.54172 1.67965C4.57297 2.30074 4.9636 3.33985 6.23312 3.33985H57.8931C59.1548 3.33985 59.5415 2.28905 59.565 1.67965H59.5608Z" fill="white"/>
<path d="M51.9317 21.6997C51.3106 21.0786 50.2911 21.0786 49.67 21.6997L44.2012 27.1685C43.5801 27.7896 43.5801 28.8091 44.2012 29.4302C44.5098 29.7388 44.9199 29.899 45.3301 29.899C45.7402 29.899 46.1504 29.7388 46.459 29.4302L48.0606 27.8286L59.1306 38.8876L60.9822 36.2079L50.3342 25.5669L51.9436 23.9575C52.5647 23.3364 52.5647 22.3169 51.9436 21.6958L51.9317 21.6997Z" fill="white"/>
<path d="M10.4502 5.47656H13.8799V35.2466H10.4502V5.47656Z" fill="white"/>
<path d="M18.9238 20.1286C18.1855 19.9802 17.4629 20.1481 16.8926 20.6169C16.3418 21.0661 16.0215 21.7458 16.0215 22.4685V35.2495H32.0805C33.3891 35.2495 34.4711 34.1714 34.4711 32.8511C34.4711 31.5308 33.393 30.4605 32.0805 30.4605H21.8615C21.2716 30.4605 20.7912 29.98 20.7912 29.3902V22.5621C20.7912 21.3824 20.0021 20.3512 18.9123 20.1324L18.9238 20.1286Z" fill="white"/>
<path d="M4.44286 57.3476C4.96239 53.1484 8.56396 49.8789 12.9038 49.8789C17.2436 49.8789 20.8452 53.1405 21.3647 57.3476H31.4547L27.3649 52.3671C23.7438 47.9882 18.6657 45.4688 13.3849 45.4688H0.00585938V54.1992C0.00585938 55.9375 1.42776 57.3595 3.16606 57.3595H4.44726L4.44286 57.3476Z" fill="white"/>
</svg>
