<svg width="90" height="77" viewBox="0 0 90 77" fill="none" xmlns="http://www.w3.org/2000/svg">
<path d="M87.584 61.487C87.3465 57.0619 85.5249 52.87 82.452 49.677C82.476 49.589 83.862 27.538 83.862 27.538C83.864 27.51 83.865 27.481 83.865 27.452C83.865 25.12 82.368 23.293 80.456 23.293H74.686L76.029 7.874H79.096C79.849 7.874 80.46 7.261 80.46 6.505C80.46 2.918 77.554 0 73.983 0H26.253C22.681 0 19.776 2.918 19.776 6.505C19.776 7.261 20.386 7.874 21.14 7.874H23.276L14.298 41.521C7.091 45.395 2.104 53.067 2.05 61.675C1.42683 62.0363 0.909477 62.5549 0.549711 63.179C0.189946 63.8031 0.000385674 64.5107 0 65.231C0 67.496 1.835 69.339 4.091 69.339H6.069C7.138 73.661 11.033 76.875 15.663 76.875C20.293 76.875 24.189 73.661 25.257 69.339H62.695C63.764 73.661 67.659 76.875 72.289 76.875C76.919 76.875 80.815 73.661 81.883 69.339H85.908C88.164 69.339 89.999 67.496 89.999 65.231C89.9991 64.4408 89.7713 63.6673 89.343 63.0033C88.9146 62.3392 88.3039 61.8128 87.584 61.487ZM80.292 61.128C78.494 58.641 75.577 57.019 72.29 57.019C66.955 57.019 62.595 61.286 62.412 66.6H61.048C61.232 60.531 66.202 55.65 72.289 55.65C76.293 55.65 79.92 57.752 81.933 61.123H80.341C80.325 61.123 80.309 61.127 80.292 61.128ZM29.293 63.848C35.8845 63.7727 42.4766 63.7774 49.068 63.862C49.4304 63.8657 49.7794 63.7254 50.0384 63.4719C50.2974 63.2184 50.445 62.8724 50.449 62.51C50.4541 62.1476 50.315 61.798 50.0624 61.5381C49.8099 61.2782 49.4644 61.1293 49.102 61.124C47.393 61.1033 45.684 61.0869 43.975 61.075V54.953C44.383 54.959 44.801 54.969 45.231 54.98C48.836 55.07 52.92 55.173 56.899 52.654C57.7651 52.0975 58.6193 51.5227 59.461 50.93C62.562 48.781 65.491 46.751 69.22 46.746C77.227 46.755 83.844 52.823 84.77 60.62C83.6129 58.3013 81.8319 56.3514 79.6271 54.9897C77.4223 53.628 74.8814 52.9084 72.29 52.912C66.652 52.912 61.786 56.284 59.578 61.124H54.536C53.783 61.124 53.172 61.737 53.172 62.493C53.172 63.249 53.782 63.862 54.536 63.862H58.657C58.459 64.747 58.344 65.662 58.321 66.601H29.631C29.6096 65.6744 29.4964 64.7522 29.293 63.848ZM43.975 52.212V50.511C43.975 48.435 45.657 46.745 47.725 46.745H60.807C59.817 47.357 56.27 49.812 55.444 50.335C52.163 52.413 48.673 52.326 45.299 52.24C44.847 52.229 44.408 52.218 43.975 52.212ZM80.455 26.032C80.686 26.032 81.123 26.569 81.137 27.414L79.887 47.452C77.7857 45.9383 75.3867 44.8885 72.849 44.372L74.447 26.032H80.455ZM70.141 44.031C69.6894 44.0184 69.2377 44.0148 68.786 44.02L69.523 35.564C69.5552 35.203 69.4428 34.8439 69.2105 34.5657C68.9782 34.2874 68.645 34.1127 68.284 34.08C67.9232 34.0501 67.5653 34.1642 67.2885 34.3976C67.0117 34.6309 66.8386 34.9644 66.807 35.325L66.117 43.244C65.3992 42.9266 64.799 42.3922 64.4008 41.716C64.0026 41.0397 63.8264 40.2556 63.897 39.474L64.788 29.247C64.8574 28.4527 65.1769 27.7009 65.7008 27.0998C66.2246 26.4987 66.9257 26.0793 67.703 25.902C67.5822 27.1651 67.4475 28.4268 67.299 29.687C67.2757 29.8789 67.2933 30.0737 67.3508 30.2583C67.4082 30.4429 67.5042 30.6132 67.6324 30.758C67.7605 30.9028 67.918 31.0188 68.0942 31.0982C68.2705 31.1777 68.4616 31.2189 68.655 31.219C69.336 31.219 69.924 30.708 70.007 30.012C70.516 25.74 71.638 10.892 71.929 7.874H73.292L70.141 44.031ZM26.04 7.874H36.9C37.653 7.874 38.264 7.261 38.264 6.505C38.264 5.749 37.654 5.136 36.9 5.136H22.759C23.0329 4.43175 23.5127 3.82641 24.1358 3.39899C24.7589 2.97156 25.4964 2.74191 26.252 2.74H73.981C75.568 2.74 76.928 3.735 77.474 5.136H41.509C40.756 5.136 40.145 5.749 40.145 6.505C40.145 7.261 40.755 7.874 41.509 7.874H69.188C68.906 10.835 68.137 20.985 67.956 23.101C66.4374 23.2378 65.0154 23.9046 63.939 24.9846C62.8627 26.0646 62.2007 27.4889 62.069 29.008L61.178 39.235C61.1012 40.0856 61.1934 40.9429 61.4491 41.7577C61.7048 42.5726 62.119 43.3288 62.668 43.983L62.689 44.006H47.725C44.153 44.006 41.248 46.924 41.248 50.511V61.061C38.6333 61.052 36.0186 61.056 33.404 61.073L29.382 50.703L39.27 33.503L42.143 35.169C42.661 35.469 43.25 35.628 43.846 35.628C44.4453 35.6267 45.0337 35.4679 45.5522 35.1674C46.0706 34.8669 46.501 34.4353 46.8 33.916C47.0249 33.5266 47.1707 33.0968 47.2293 32.651C47.2878 32.2052 47.2578 31.7522 47.141 31.318C47.0264 30.8838 46.827 30.4765 46.5543 30.1197C46.2816 29.7628 45.9409 29.4635 45.552 29.239L37.286 24.446C36.7685 24.146 36.1811 23.9877 35.583 23.987C34.9837 23.9883 34.3953 24.1471 33.8769 24.4476C33.3584 24.7481 32.928 25.1797 32.629 25.699C32.4041 26.0884 32.2583 26.5182 32.1997 26.964C32.1412 27.4098 32.1712 27.8628 32.288 28.297C32.524 29.18 33.088 29.918 33.876 30.376L36.908 32.134L28.113 47.432L25.135 39.752C25.0327 39.4852 24.849 39.2575 24.6098 39.1011C24.3707 38.9448 24.0884 38.8677 23.803 38.881C21.6518 38.9797 19.5268 39.3937 17.496 40.11C17.497 40.109 26.041 7.997 26.04 7.874ZM35.241 28.003C35.1108 27.9273 35.0092 27.8109 34.9517 27.6717C34.8943 27.5325 34.8843 27.3783 34.9232 27.2328C34.9621 27.0873 35.0477 26.9587 35.167 26.8667C35.2862 26.7748 35.4324 26.7246 35.583 26.724C35.703 26.724 35.817 26.755 35.922 26.816L44.188 31.609C44.3449 31.7003 44.4592 31.85 44.5061 32.0254C44.5529 32.2008 44.5284 32.3876 44.438 32.545C44.3463 32.7001 44.1976 32.8132 44.0236 32.8601C43.8496 32.907 43.6642 32.884 43.507 32.796L35.241 28.003ZM22.959 41.684L30.487 61.096L28.374 61.12C26.165 56.282 21.301 52.912 15.664 52.912C13.6941 52.9079 11.7458 53.3226 9.94838 54.1286C8.15092 54.9346 6.54531 56.1134 5.238 57.587C7.079 49.168 14.261 42.517 22.959 41.684ZM2.727 65.231C2.727 64.476 3.339 63.862 4.091 63.862H6.268C5.9792 64.7478 5.8166 65.6698 5.785 66.601H4.091C3.72869 66.5994 3.38177 66.4544 3.12614 66.1976C2.87051 65.9409 2.727 65.5933 2.727 65.231ZM15.663 74.137C11.715 74.137 8.504 70.912 8.504 66.948C8.504 62.984 11.716 59.759 15.663 59.759C16.118 59.759 16.58 59.804 17.034 59.892C17.3854 59.9483 17.7448 59.8658 18.0364 59.6618C18.3279 59.4578 18.5287 59.1483 18.5961 58.7989C18.6635 58.4495 18.5924 58.0876 18.3977 57.7897C18.203 57.4919 17.9001 57.2815 17.553 57.203C16.9307 57.0815 16.2981 57.0202 15.664 57.02C12.378 57.02 9.464 58.639 7.665 61.123H6.02C7.01349 59.4517 8.42522 58.0681 10.1161 57.1084C11.807 56.1487 13.7187 55.6461 15.663 55.65C21.75 55.65 26.721 60.531 26.904 66.6H25.54C25.4461 63.9672 24.3144 61.4784 22.392 59.677C22.2611 59.5546 22.1073 59.4594 21.9395 59.3966C21.7716 59.3339 21.593 59.3049 21.4139 59.3115C21.2349 59.318 21.0589 59.3598 20.896 59.4345C20.7332 59.5093 20.5867 59.6155 20.465 59.747C20.2184 60.0132 20.0873 60.3663 20.1004 60.729C20.1135 61.0916 20.2698 61.4343 20.535 61.682C21.26 62.3534 21.8376 63.1681 22.2313 64.0744C22.625 64.9807 22.8261 65.9589 22.822 66.947C22.822 70.911 19.611 74.137 15.663 74.137ZM72.29 74.137C68.343 74.137 65.131 70.912 65.131 66.948C65.131 62.984 68.343 59.759 72.29 59.759C76.237 59.759 79.449 62.984 79.449 66.948C79.449 70.912 76.237 74.137 72.29 74.137ZM85.909 66.6H82.167C82.1354 65.6689 81.9728 64.7468 81.684 63.861H85.908C86.66 63.861 87.272 64.475 87.272 65.23C87.2728 65.5924 87.1297 65.9402 86.8741 66.1971C86.6185 66.454 86.2714 66.5989 85.909 66.6Z" fill="white"/>
<path d="M15.6632 61.1271C12.4672 61.1271 9.86719 63.7381 9.86719 66.9471C9.86719 70.1561 12.4672 72.7671 15.6632 72.7671C18.8592 72.7671 21.4592 70.1561 21.4592 66.9471C21.4592 63.7381 18.8592 61.1271 15.6632 61.1271ZM15.6632 70.0281C13.9712 70.0281 12.5952 68.6461 12.5952 66.9471C12.5952 65.2481 13.9712 63.8661 15.6632 63.8661C17.3552 63.8661 18.7312 65.2481 18.7312 66.9471C18.7312 68.6461 17.3552 70.0281 15.6632 70.0281ZM72.2902 61.1271C69.0942 61.1271 66.4942 63.7381 66.4942 66.9471C66.4942 70.1561 69.0942 72.7671 72.2902 72.7671C75.4862 72.7671 78.0862 70.1561 78.0862 66.9471C78.0862 63.7381 75.4862 61.1271 72.2902 61.1271ZM10.4372 52.0951C10.5774 52.2069 10.7383 52.2898 10.9107 52.339C11.0831 52.3882 11.2635 52.4028 11.4416 52.3819C11.6197 52.361 11.7918 52.305 11.9481 52.2171C12.1044 52.1293 12.2417 52.0113 12.3522 51.8701C14.6822 48.9131 17.9322 46.8511 21.5042 46.0631C21.8582 45.9845 22.1665 45.7685 22.3613 45.4627C22.5561 45.1568 22.6215 44.7862 22.5432 44.4321C22.5051 44.2569 22.4329 44.0909 22.3307 43.9437C22.2285 43.7964 22.0982 43.6707 21.9474 43.5737C21.7966 43.4768 21.6282 43.4105 21.4518 43.3786C21.2753 43.3468 21.0944 43.35 20.9192 43.3881C16.7352 44.3111 12.9332 46.7201 10.2142 50.1711C9.9895 50.4562 9.88683 50.8186 9.92862 51.1791C9.9704 51.5397 10.1533 51.869 10.4372 52.0951Z" fill="white"/>
</svg>
