<svg width="88" height="72" viewBox="0 0 88 72" fill="none" xmlns="http://www.w3.org/2000/svg">
<path fill-rule="evenodd" clip-rule="evenodd" d="M78.2043 52.4884L69.6887 62.2111C68.759 63.2736 67.1223 63.3283 66.1223 62.3283L63.5559 59.7619C63.1496 59.3557 62.4895 59.3557 62.0793 59.7619L62.0168 59.8244L56.5754 54.383C65.0168 49.8205 70.7514 40.891 70.7514 30.617C70.7514 27.1639 70.0795 23.8748 68.8959 20.8397L74.349 15.3866L74.388 15.4257C74.7943 15.8319 75.4544 15.8319 75.8646 15.4257L87.1926 4.09769C87.5989 3.69144 87.5989 3.03129 87.1926 2.62109L84.8762 0.304688C84.47 -0.101562 83.8098 -0.101562 83.3996 0.304688L72.0716 11.6327C71.6654 12.0389 71.6654 12.6991 72.0716 13.1093L72.1341 13.1718L67.513 17.7929C62.9622 9.35929 54.033 3.62089 43.763 3.62089C33.493 3.62089 24.564 9.35919 19.997 17.8009L15.3759 13.1798L15.4384 13.1173C15.8447 12.711 15.8447 12.0509 15.4384 11.6407L4.11043 0.312687C3.70418 -0.0935631 3.04403 -0.0935631 2.63383 0.312687L0.317427 2.62909C-0.0888231 3.03534 -0.0888231 3.69549 0.317427 4.10569L11.6454 15.4337C12.0517 15.8399 12.7118 15.8399 13.122 15.4337L13.1611 15.3946L18.6142 20.8477C17.4345 23.8829 16.7587 27.1719 16.7587 30.625C16.7587 40.895 22.4931 49.824 30.9387 54.391L25.4973 59.8324L25.4348 59.7699C25.0285 59.3637 24.3684 59.3637 23.9582 59.7699L21.3918 62.3363C20.3918 63.3363 18.7551 63.2816 17.8254 62.2191L9.30979 52.4964C6.99339 49.8558 2.66919 50.2308 1.02859 53.3363C0.44265 54.4496 0.0364001 55.7855 0.00129009 57.3558C-0.13933 64.3167 11.2553 71.0828 14.7863 71.3478C18.9191 71.6564 21.7941 69.508 27.7513 63.5509C28.1575 63.1446 28.1497 62.4884 27.7435 62.0821L27.7044 62.043L33.9739 55.7735C37.0091 56.9532 40.2981 57.629 43.7512 57.629C47.2043 57.629 50.4934 56.9571 53.5285 55.7735L59.798 62.043L59.759 62.0821C59.3527 62.4883 59.3488 63.1446 59.7511 63.5509C65.7081 69.5079 68.5831 71.6564 72.7161 71.3478C76.2473 71.0822 87.6421 64.3166 87.5011 57.3558C87.4699 55.7855 87.0636 54.4535 86.4738 53.3363C84.8449 50.223 80.5207 49.8478 78.2043 52.4884ZM3.01627 54.4767C2.38346 55.6759 2.05142 56.9884 2.02407 58.379C1.99673 59.5626 2.3483 60.7618 2.95377 61.9337C1.89907 60.4571 1.23107 58.9025 1.26237 57.3751C1.2858 56.1407 1.58268 54.9767 2.14518 53.9142C2.70768 52.8478 3.73498 52.1486 4.96548 52.008C5.12173 51.9885 5.27406 51.9807 5.42641 51.9807C5.99282 51.9807 6.54752 52.1018 7.05532 52.3322C6.94204 52.3244 6.83266 52.2971 6.71548 52.2971C6.5436 52.2971 6.36782 52.3088 6.19595 52.3283C4.80925 52.4885 3.65297 53.2736 3.01627 54.4767ZM12.7507 68.2387C12.6491 68.3403 12.485 68.3403 12.3835 68.2387L6.13347 61.9887C6.03191 61.8872 6.03191 61.7231 6.13347 61.6215C6.23503 61.52 6.3991 61.52 6.50067 61.6215L12.7507 67.8716C12.8522 67.9731 12.8522 68.1411 12.7507 68.2387ZM15.2859 67.2973C15.1843 67.3989 15.0202 67.3989 14.9187 67.2973L6.61398 58.9926C6.51242 58.8911 6.51242 58.727 6.61398 58.6254C6.71554 58.5239 6.87961 58.5239 6.98117 58.6254L15.2859 66.9301C15.3874 67.0317 15.3874 67.1958 15.2859 67.2973ZM17.9461 66.4809C17.8445 66.5825 17.6804 66.5825 17.5789 66.4809L6.09088 54.9929C5.98932 54.8914 5.98932 54.7273 6.09088 54.6257C6.19244 54.5242 6.3565 54.5242 6.45807 54.6257L17.9461 66.1137C18.0476 66.2114 18.0476 66.3793 17.9461 66.4809ZM43.7621 54.5079C30.5711 54.5079 19.8751 43.8129 19.8751 30.6209C19.8751 17.4289 30.5701 6.73392 43.7621 6.73392C56.9541 6.73392 67.6491 17.4289 67.6491 30.6209C67.6491 43.8129 56.9541 54.5079 43.7621 54.5079ZM72.6101 67.2969C72.5085 67.3985 72.3444 67.3985 72.2429 67.2969C72.1413 67.1954 72.1413 67.0313 72.2429 66.9297L80.5476 58.625C80.6491 58.5235 80.8132 58.5235 80.9148 58.625C81.0163 58.7266 81.0163 58.8906 80.9148 58.9922L72.6101 67.2969ZM81.3953 61.9883L75.1453 68.2383C75.0437 68.3399 74.8796 68.3399 74.7781 68.2383C74.6765 68.1368 74.6765 67.9727 74.7781 67.8711L81.0281 61.6211C81.1296 61.5196 81.2937 61.5196 81.3953 61.6211C81.4968 61.7227 81.4968 61.8867 81.3953 61.9883ZM81.4343 54.9922L69.9463 66.4802C69.8448 66.5818 69.6807 66.5818 69.5791 66.4802C69.4776 66.3786 69.4776 66.2146 69.5791 66.113L81.0671 54.625C81.1687 54.5235 81.3328 54.5235 81.4343 54.625C81.5359 54.7266 81.5359 54.8906 81.4343 54.9922ZM84.571 61.9336C85.1765 60.7617 85.5241 59.5625 85.5007 58.3789C85.4734 56.9883 85.1374 55.6758 84.5085 54.4766C83.8757 53.2735 82.7155 52.4883 81.3288 52.3282C81.153 52.3087 80.9812 52.297 80.8093 52.297C80.696 52.297 80.5827 52.3243 80.4695 52.3321C80.9773 52.1016 81.532 51.9806 82.0984 51.9806C82.2507 51.9806 82.407 51.9884 82.5593 52.0079C83.7898 52.1524 84.8171 52.8477 85.3796 53.9141C85.9382 54.9766 86.239 56.1407 86.2624 57.375C86.2937 58.9023 85.6257 60.457 84.571 61.9336ZM64.872 30.6216C64.872 42.2776 55.4228 51.7306 43.763 51.7306C40.8372 51.7306 38.0521 51.133 35.5208 50.0587C37.263 50.4806 39.0755 50.7306 40.9466 50.7306C53.6066 50.7306 63.8726 40.4646 63.8726 27.8046C63.8726 25.9296 63.6226 24.121 63.2007 22.3749C64.2749 24.9101 64.872 27.6958 64.872 30.6216ZM27.04 22.0825C26.4111 22.5044 25.8134 22.6411 25.4189 22.3794C24.6924 21.895 24.9345 20.2583 25.9619 18.7271C26.9853 17.1919 28.4072 16.3443 29.1299 16.8287C29.5244 17.0943 29.6221 17.6998 29.4776 18.442C29.4463 18.1842 29.3526 17.9772 29.1807 17.86C28.6338 17.4967 27.5713 18.1334 26.7979 19.2858C26.0284 20.4381 25.8448 21.6686 26.3916 22.0319C26.5596 22.1451 26.79 22.1528 27.04 22.0825ZM29.9658 15.9848C29.4814 15.2583 30.3291 13.8403 31.8642 12.8168C33.3994 11.7934 35.0361 11.5512 35.5165 12.2738C35.7821 12.6684 35.6376 13.266 35.2196 13.8949C35.29 13.6449 35.2861 13.4184 35.1689 13.2465C34.8056 12.6996 33.5751 12.8832 32.4228 13.6528C31.2705 14.4223 30.6298 15.4887 30.997 16.0356C31.1102 16.2074 31.3212 16.3012 31.579 16.3324C30.8407 16.4809 30.2314 16.3794 29.9658 15.9848ZM32.4619 19.3207C31.4815 20.3012 31.0635 21.4691 31.5283 21.934C31.6729 22.0785 31.8955 22.1293 32.1572 22.1098C31.458 22.3989 30.8447 22.4184 30.5088 22.0864C29.8917 21.4692 30.4503 19.9145 31.751 18.6059C33.0557 17.3012 34.6104 16.7465 35.2315 17.3637C35.5675 17.6996 35.544 18.3129 35.255 19.0121C35.2745 18.7542 35.2237 18.5316 35.0792 18.3831C34.6144 17.9222 33.4424 18.3402 32.4619 19.3207ZM34.6728 25.0785C34.8174 25.223 35.04 25.2738 35.3017 25.2543C34.6025 25.5434 33.9892 25.5629 33.6533 25.2309C33.0361 24.6137 33.5947 23.059 34.8955 21.7504C36.2002 20.4457 37.7549 19.891 38.376 20.5082C38.712 20.8441 38.6885 21.4574 38.3995 22.1566C38.419 21.8987 38.3682 21.6761 38.2237 21.5276C37.7589 21.0628 36.5909 21.4808 35.6104 22.4612C34.626 23.4456 34.208 24.6175 34.6728 25.0785ZM25.8994 24.8324C25.7705 24.6059 25.6065 24.4496 25.4033 24.4105C24.7588 24.2816 24.0205 25.2816 23.751 26.641C23.4815 28.0005 23.7823 29.2074 24.4268 29.3363C24.6299 29.3754 24.8409 29.2934 25.0479 29.1332C24.626 29.7621 24.126 30.1215 23.6612 30.0277C22.8057 29.8559 22.4034 28.2543 22.7628 26.4457C23.1221 24.6371 24.1066 23.309 24.9659 23.4769C25.4268 23.5707 25.751 24.0941 25.8994 24.8324ZM36.6184 11.8204C36.4465 10.965 37.7786 9.98062 39.5832 9.61732C41.3918 9.25794 42.9973 9.66029 43.1652 10.5158C43.259 10.9806 42.8996 11.4806 42.2707 11.9025C42.4309 11.6993 42.5129 11.4845 42.4738 11.2853C42.3449 10.6447 41.1418 10.34 39.7785 10.6095C38.4191 10.879 37.4191 11.6212 37.548 12.2618C37.5871 12.4649 37.7472 12.629 37.9699 12.7579C37.2355 12.6094 36.7122 12.2853 36.6184 11.8204ZM30.5442 24.4494C30.4348 24.215 30.2825 24.0471 30.0833 23.9885C29.4505 23.8127 28.638 24.7541 28.263 26.0862C27.8919 27.4221 28.0989 28.6448 28.7317 28.8206C28.931 28.8753 29.1497 28.8089 29.3645 28.6682C28.8997 29.262 28.3724 29.5823 27.9153 29.4573C27.0755 29.2229 26.7942 27.594 27.2903 25.8167C27.7864 24.0394 28.8684 22.7894 29.7083 23.0237C30.1693 23.1526 30.4544 23.6994 30.5442 24.4494ZM36.1653 16.5744C35.9309 15.7346 37.1809 14.6525 38.9583 14.1564C40.7356 13.6603 42.3645 13.9416 42.5989 14.7814C42.7278 15.2385 42.4075 15.7658 41.8099 16.2306C41.9544 16.0158 42.0208 15.797 41.9622 15.5978C41.7864 14.965 40.5599 14.758 39.2278 15.1291C37.8919 15.5002 36.9544 16.3166 37.1301 16.9494C37.1848 17.1486 37.3567 17.3009 37.591 17.4103C36.841 17.3126 36.2942 17.0276 36.1653 16.5744Z" fill="black"/>
</svg>
